<svg xmlns="http://www.w3.org/2000/svg" width="2274" height="1191" viewBox="0 0 2116 1109" shape-rendering="geometricPrecision" text-rendering="geometricPrecision" image-rendering="optimizeQuality" fill-rule="evenodd" clip-rule="evenodd"><defs><style>.fil0{fill:#e7e7e7}</style></defs><g id="Слой_x0020_1"><g id="_2138416798128"><path class="fil0" d="M643 1073c0-1 4-4 5-5 2-2 4-4 6-4 16 0 24-2 30 5 10 10-3 9-10 20-4-1-6-2-10-3l-3 3-8-5c-5-5-10-7-10-11zm26-64c0-3 1-4 3-6 22 0 20-3 20 19v31c0 3 1 13-6 9-3-3 0-4-14-4-2-3-3-3-3-8v-41zm-30 0c0-3 2-4 3-6h19c1 2 2 3 2 6v41c0 8-4 8-11 8-6 0-6 4-11 5-3-8-2-43-2-54zM82 941c0-6-2-14 5-14 21 0 18-1 18 14l18 6c7 4 7 5 15 7 3-4 4-2 6-7 8 0 3-2 10 5 8 7 13 9 1 18 0 7 1 5 3 9 5 9 4 12 6 16l3 6 2 2c6 0 8-1 12 3l1 17c-11 8-12-4-18 10-2 6 1 1-4 12-1 2-1 3-2 4-4 7-6 7 1 14 2 1 3 3 4 5l-14 14h-4c-4-7-3-2-7-7-7 0-10 4-16 7-2 1-3 1-6 1-19 7-7 5-12 18-2 0-1 1-4 1-26 0-15 0-19-15-1-1-11-4-19-8-15-6-9-6-16 0l-5 3v1c-23-19-14-15-7-26-2-5-1-2-4-7-7-16-3-9-9-24H8c-2-7-1-14 0-21l13-2c6-23 10-22 13-32-9-11-12-7-1-19 3-2 4-5 8-6 9 6 2 4 11 8l11-5c5-3 14-5 19-8zm570-43c0-2 3-8 4-9 2-2 7-4 9-4 8 0 15 6 15 13 0 19-19 18-25 11-3-3-3-7-3-11zm-11 98c-2-4-2-10-3-14-1-3-2-9-4-12-2-2-1 1-2-2-4-10-12-18-19-26s-7-12-10-19c-5-11-3-21-3-32 1-6 6-19 10-24 2-4 3-6 7-9 1-2 3-3 4-4l3-3c5-5 8-5 11-7l11-6c19-5 42-1 59 11 8 6 17 16 21 25 2 5 7 19 7 23 0 22 0 10-4 25-4 19-18 28-23 36-1 1-3 3-4 5l-3 5c-7 11-2 28-14 28-11 0-16 2-16-7v-64c0-7 3-4 10-9 8-7 10-19 4-28-4-8-15-11-20-9-11 3-19 10-19 22 0 1 4 11 8 14 2 1 1 1 3 2 4 4 8 1 8 8v65c0 8-8 7-22 6zm30-232c10 0 21 0 30-2 4-1 9-2 14-2 7-1 6-2 12-3l33-13 33-27c3-2 5-6 7-8l6-10c2-2 13-18 7-20-4-1-6 5-7 8-12 23-32 42-54 53l-34 13c-9 1-16 3-26 3-12 0-52-1-60 1 0 11 13 5 27 7 4 0 4 0 4 4v57c-1 4 1 4-3 5-8 1-11 1-19 4-2 0-4 0-6 2-5 3-14 7-18 12l-11 12c-2 2-4 6-5 10l-5 11c-4 14 0 17-13 17-67-1-50-8-90 32l-46 46c-4 4-10 13-16 13l-42-42c-1 0-1-1-1-1l-1-1-12-11c-1-2-4-5-5-6l-22 11c-4 2-2 1-4 3-3 1-6 1-10 3-7 4-15 1-18 9-1 4 1 12 0 17l-2 5c-4 4-41 2-46 0v-24c-6-4-7-4-14-6-4-1-4-1-7-2s-4-1-7-3l-24-13c-2 1-5 3-6 4-1 2 0 1-2 3l-7 7c-1 1-3 3-5 4-2-1-4-2-6-4l-6-6c-5-5-3-3-8-6l-10 10-2 2c-1 1 0 0-1 2-1 1-2 1-2 2-3-1-5-2-7-4l-5-5c-8 2-7 6-15 9-3-2-6-3-9-5-14-7-12 2-13-19-5-2-6-2-11-2h-9c-29-2-5 15-24 19-5 1-4 2-8 4l-8 3-11-10c-3 2-4 3-7 6l-5 5c-4 3-10 9-13 13 1 4 5 8 8 10 0 5 1 5-1 9-1 2-2 3-3 5-2 6-1 9-6 12-4 1-12-2-14 3v31c5 4 8 3 15 3 2 3 3 4 4 9 2 7 9 12 3 19-3 3-5 4-6 8l19 19c2 2 4 2 5 5 2-2 4-3 6-5 7-7 8-5 17-1l8 3c6 3 4 11 6 17 10 3 10 1 17 1h18c0-19 1-16 10-19 3-1 2-1 5-2 2-1 3-2 4-3 8-4 11 8 18 8l23-24c-9-14-13-6-4-24 2-5 2-8 5-11 9 0 9 1 15-4v-30c-7-5-9-1-16-4-1-2-2-4-2-6-2-6-7-11-7-18 4-3 7-7 9-11-2-2-4-5-6-7 1-5 7-10 10-13 8 4 12 13 20 15 2-1 3-2 5-4 14-13 10-18 30-6 6 3 17 7 24 8 9 2 7 9 6 27l4 4h45c10 0 12 2 12-9 0-18-2-19 8-22l23-9c3-2 13-7 16-6 5 1 52 54 63 61l25-24c2-1 1-1 3-2l1-2 23-22c0-1 0 0 1-2l2-2 2-2c1-1 1 0 3-2l1-1v-1l23-22c18-19 14-13 46-13 35 0 29-3 32 12 1 7 3 13 6 19 2 2 2 5-1 6h-18c-9 0-8 0-14 3 0 14-4 24-5 38 0 6-2 12-3 18-1 7 0 13-2 19-10-2-17-24-25-29-4 6-4 12-6 18-3 7-2 14-9 16-2-2-5-7-6-10l-20-30c-6 3-9 14-12 19-1 3-1 4-3 7l-13 27c-2 2-2 4-4 6-1 3 0 1-1 4l-22 43c-5-2-5-6-7-10-4-9-10-18-14-26-1-2 0-1-2-3 0-2 0-1-1-2l-14-27c-2-4-6-12-9-15-5 2-9 16-12 22-1 3 0 4-2 7-3 5-4 12-9 16-5-2-8-8-12-12v-1h-1c-4-5-11-17-17-18-5 4-9 11-14 16l-13 15c-4-1-4-4-5-7-5-8-8-16-11-24-7 0-8 4-12 7l-17 14c-3-3-4-7-7-11l-5-9c-1-2-1-3-3-4-2-4-1-6-5-8-4 2-2 2-4 5-4 8-15 27-19 36-2 3-2 2-4 5l-16 30c-2 6-9 12-7 18 7 1 9-7 11-12 2-3 2-2 3-5l12-20c1-3 1-3 3-6l8-15c1-2 1-3 3-6 1-2 1-3 2-5 2-4 4-5 5-10h5l16 27c10 0 18-19 27-20 5 5 7 14 10 20 1 2 1 3 2 4 3 5 1 8 7 9l4-5c1-1 2-2 3-4l10-12c8-10 8-12 15-12 5 9 14 16 20 24 2 4 4 5 6 8h4c2-2 1-3 2-6 1-2 2-2 3-5 1-2 1-4 2-6 1-1 2-3 2-5 2-3 1-2 3-5 2-5 3-12 8-15 2 2 4 8 6 11 1 2 2 3 3 5l19 36c4 7 13 27 17 31 4-3 19-37 23-44 2-2 1 0 2-3s1-4 3-6c2-3 1-1 2-4l3-7c5-10 18-39 22-43 6 3 8 10 13 15l14 24c1 2 2 2 4 5 1-1 1 0 2-2l4-16c1-2 2-4 3-8s1-5 3-8c3-1 2-1 4-1 2 2 1 2 3 4 0 2 1 2 2 4l15 20c2 1 2 2 3 3l5-30c1-4 1-10 2-15s2-9 3-14c0-5 2-27 5-30 2-2 27-1 33-1l5 5c6 7 13 13 15 22 1 4 2 4 3 7 5 16 0 84 2 93 0 2 22 20 26 22 5 4 2 6 6 11 7-1 2-4 7-10 4-4 25-18 26-22 2-6-1-65 0-80 1-18 10-32 22-44 5-5 8-10 11-16 5-8 8-22 8-31 0-24-12-52-30-62l-9-5c-4-2-2-2-9-4-4-1-6-3-9-3-14-2-12-1-12-15 0-13-1-43 1-52zm1024-359v6c-2 0-3 1-5 1-15 0-16 1-15-7 3-3 16-2 20 0zm-33-48c0-22 31-32 44-11 5 8 3 15 1 22-2 4-4 7-7 9s-5 3-5 9c0 11 4 10-19 10-2-5-1-7-1-13-1-5-3-5-6-7-4-4-7-13-7-19zm-230-6c19-1 18 0 19 7l-3 3c-8 0-13 2-18-2v-4l2-4zm-2-23c-3-2-9-7-11-10l-3-8c-2-6 2-17 3-26l5-35c1-3 1-4 2-8 0-2 1-6 2-8 3-9 6-23 13-26l3 4c3 3 9 24 10 26 1 5 1 8 2 12 2 8 2 17 4 25 1 4 1 8 2 12 1 3 0 5 0 7 2 18 3 24-12 35 0 6 1 11-1 17h-17c-3-5-2-11-2-17zm141-164c3-1 8-2 11 0 3 1 2 5 2 9-3 2-8 3-13 1v-10zm-8 0c0 4 0 7-1 10-2 2-6 1-7 1-6 0-6-3-6-8 0-6 9-4 14-3zm-12-106c0-2 4-8 5-10 3-2 9-4 13-3 6 2 8 3 10 7 8 9 0 24-15 23-4-1-7-3-9-5-3-4-4-7-4-12zm-38 1c0-11 6-26 14-34 7-8 21-17 31-17 19 0 21-2 37 8 2 1 7 4 8 6 10 8 12 16 16 27 4 12 0 25-5 35l-5 8c-2 4-5 5-7 8l-15 27c-2 7 0 17-10 17-4 0-4 0-6-2V82c4-2 9-4 12-7 8-8 8-23 0-31-6-5-10-6-18-6-13 0-21 13-21 20s3 14 7 18c5 4 11 5 12 9v52c0 4-1 5-2 7-19 0-9-5-19-27l-16-22c-8-8-13-23-13-36zm33 91h16c1 4 0 4-1 7-22 0-19-2-19 19 0 1 2 4 2 6h18c0 2 1 3 1 5 0 35 1 280-1 293-5 2-99 1-113 1-4 0-6-2-6-6V373c0-11 15 3 15-13v-29c3-2 5-5 7-8 6-10 5-16 5-28l-6-40c-1-5-2-7-3-13 0-5-2-8-3-12-1-3 0-4-1-6l-6-14c-1-2 0-2-1-3-7-15-19-6-23 7l-7 20c-1 3-1 8-2 11 0 4-2 7-2 11l-4 23c-1 15-5 34 3 44l7 7c3 5 1 26 1 32 0 9 6 5 13 8 4 19-2 71 0 96 1 4 2 11-1 14-3 2-28 1-35 1-6 0-7-1-8 4l1 1c6 4 164-2 190 2 6 1 14 0 20 1 3 1 4 2 8 3 3 1 6 0 9 2 3 1 3 1 7 3 5 1 11 5 14 7 2 1 2 1 4 1 1 1 1 2 3 3l6 4c8 7 15 14 21 22 3 3 3 2 4 7l-28 26c-4 3-11 12-16 11-2 0-9-9-11-11-8-8-18-13-29-17-8-3-18-3-27-3-4 0-1 0-5 1-18 1-18 5-27 13 0 7 0 11 6 15 2 2 7 5 10 6l38 8c4 0 7 3 11 3 7 1 20 4 25 7 5 2 11 3 16 6 7 5 16 10 21 17l5 6 2 2c4 5 9 15 9 21 2 15 3 4 3 27 0 1-3 18-4 19-3 10-8 18-14 26-1 1 0 0-1 2l-6 5c-2 2-6 5-8 8 2 2 3 2 5 3l8-6c1 0 1-1 2-2 4-5 8-9 11-14 1-1 2-3 3-4 0-1 1-2 1-4l6-13c3-8 4-22 4-30 0-10-4-22-7-31-1-2-2-2-3-4l-13-18c-3-3-4-5-8-7-14-10-13-7-25-14-2-1-3-1-6-2-5-1-4-2-11-3-4-1-7-3-12-4h-6c-2-1-5-2-7-3-4-1-9-1-13-2l-13-3c-1 0-4-1-6-1-3-2-13-4-15-8-4-7 6-13 11-14 9-2 18-1 28-1 11 0 23 7 31 13 1 1 9 8 11 10l7 9c4 5 6 2 18-9l13-12c2-1 2-1 3-2 3-3 23-19 23-23v-10c0-5 1-2 0-5-2-17-1-87 0-104 6-4 4-2 13-3l1-16v-17c1-8 18-11 11-36-3-9-9-16-19-19s-10-3-21 0c-4 1-6 3-9 5-4 3-3 4-6 8-4 7-4 6-4 17 0 16 13 18 13 30v22c0 12 4 3 14 8 0 14 2 103-1 108-3-2-8-7-10-10-10-12-28-21-42-28-3-1-5-1-8-2-6-3-9-2-16-5-5-1-21-2-27-2-5 0-8 1-8-4V186c0-11 21 3 21-10l-1-19c-6-1-12 0-17 0-3-4-6-7 2-7 15 0 14 4 16-11 1-4 2-9 3-13 1-5 8-16 11-19 5-5 10-11 14-17 6-10 10-25 7-37-1-3-1-10-2-13l-10-16c-1-1-2-2-2-3-5-5-9-10-17-13-3-2-2-2-5-3-11-5-29-7-40-2-5 2-7 1-11 4-4 2-6 4-9 6-2 1-3 2-4 3-2 2-3 3-4 5-13 14-19 37-13 58 1 3 2 3 3 5 3 9 9 16 16 23 3 3 4 5 6 9 1 1 5 9 5 10l3 13c1 4 0 9 4 11zm-487 252c-11 0-12-8-10-11 1-5 13-3 19-3 4 0 9 14-9 14zm26-37c0 2 1 3 1 5 0 6-6 10-8 10h-33c-5 0-11-4-11-10 0-5 4-5 9-5h42zm-51-16c0-7 13-3 15-3h35c4 1 3 6 2 11-2 3-14 2-18 2l-15 1c-6 0-3-1-7-1-10 0-12 4-12-10zm4-11c-8-3-5-13-9-23-1-2-1-4-2-6-1-1-7-11-10-14-4-4-8-9-10-14-1-2-2-2-3-4-8-22-6-25-4-40 1-12 12-27 21-35 5-4 14-10 20-11l19-4c9 0 28 6 36 13 2 1 3 2 5 3l4 4c6 5 9 12 12 19 1 2 2 3 3 6l2 20c-1 20-9 33-19 43l-4 5c-1 2 0 1-1 3-1 1-1 1-1 2l-6 11c-4 9-2 21-8 22h-45zm-10 4c0 5-2 4-1 10 2 8-2 19 4 28 3 5 9 5 11 10 1 4 0 8 1 11 2 4 2 1 5 6 6 0 4 1 8 2l1 79c9 2 21 0 31 1 6 6 3 21 3 30 0 10 2 24-2 31-17 2-77 1-102 0-5 0-11-1-11 4 0 12-1 24 0 35 5 3 14 1 20 1 16 0 53-2 65 1 3 17 1 35 1 52 0 8-7 7-15 7h-69c-1 2-2 3-2 5v37l3 4h113c4 7 2 35 2 46 0 3 1 13-3 14s-209 0-252 0c-6 0-10-1-14 3 2 2 1 3 4 5 5 1 77 0 93 0 6 0 10-2 10 5 0 8 2 72-2 75-3 3-15 0-25 2-3 7 1 18-3 26-5 1-11 0-14 2v5l14 1c4 6 2 25 2 32 0 3-2 5-3 7-11 2-15-4-12 7l9-1c9 0 6 12 4 16h-47c-3-1 0 2-2-2-3-4 0-31-2-40-1 0-3-1-4-1-10 0-53-2-59 0v6c7 1 45 0 55 0 5 7 2 31 2 42l57 2c1 3 2 5 2 8 0 12-7 7-14 9-5 1-3 5 1 5 8 0 25 2 31 0 1-7-2-5-6-5-8 0-6-13-4-17 5-1 10 1 10-3 1-5-5-3-10-4-2-4-3-11 0-15 3-1 12 0 10-5-1-3-5-2-9-2-5-8-3-26-3-35 0-2 1-2 2-4 7-1 10 2 10-7l-10-1c-3-5-4-21 5-21 12 0 14-3 15 11l4 2c3-4 2-6 3-12l13-1c2 4 2 10 4 13h3c2-3 3-6 3-11 6-3 14-2 20-1l17-1c2 5 1 9 3 13h4c1-2 0 2 1-3 1-9 1-11 13-9 3 1 3 0 4 3 1 4-2 9 3 9 4 0 3-1 3-4 0-9 2-24-1-32-14 0 7 20-20 17-2-5-2-9-2-17-6-1-6-1-6 5 0 14-3 13-15 12h-3c-8 1-5 0-11 0-5 0 0 1-5 0h-4c-2-7 0-12-3-18-3 1-1 1-5 1 0 4-1 13-2 17h-6c-2 0-4 0-7-1-1-2-2-3-2-6v-70c0-7 13-4 17-4h105c10 0 34 2 40-3v-70l-2-2c-4-2-75 0-89 0-9 0-23 3-27-4 0-5-2-24 1-27s64-1 74-1c7 0 12 0 12-7v-59c0-10-9-7-13-7l-57-1c-21 0-17 1-17-21 0-8 17-5 25-5 29 0 59 1 88 0 5-5 2-28 2-36 0-9 2-33-2-38-10-1-32 3-32-6v-61c0-10 6-7 11-11 8-9-1-15 10-20 9-5 8-11 9-17 2-14-2-26 1-39 1-2 2-3 2-5 2-9 5-16 11-22 10-12 21-28 21-44 0-9 2-11 0-23-1-2-1-4-2-6-4-7-4-13-11-21l-12-13c-9-7-25-13-36-13-8 0-19-1-27 2-2 1-2 1-5 2l-11 5c-7 5-14 11-19 17-7 10-6 10-9 19-2 4-2 0-3 6-1 4-1 11-2 15 0 1 1 13 1 15 1 7 5 17 10 23 5 8 13 15 17 23s8 17 8 26c0 3 1 5 1 7zm286 720c-5 0-11-5-12-12 0-3 2-5 4-8 2-2 3-3 7-3h67c7 0 8 5 12 10-2 7-6 13-13 13h-65zm-4-30c-10-6-11-18 2-21 9-3 24-2 35-2 19 0 42-4 44 12 1 4-4 8-6 10-22 3-43 0-58 1-11 1-10 0-17 0zm44-28c-4-2-4-3-4-9 0-19-1-81 0-90 6 0 8 3 16 7l14 9c1 5 1 9-1 12-4 10-1 3-3 11l-12 42c0 3-1 4-2 5-2 7 1 11-8 13zm-40-84c2 0 4-2 6-3s3-2 6-3c19-13 17-11 17 2v73c0 8 2 11-4 15-5-2-5-2-6-8-1-4-3-7-4-11-1-9-1-4-3-10-1-5-1-7-3-11l-10-38c0-2 0-2 1-6zm-43-16c0-3 1-13 2-15 2-5 6-16 8-20l11-12c1-1 0-1 1-2 7-7 22-15 28-17 16-4 23-6 41-3 2 0 4 1 7 2l10 4c12 5 26 17 32 27 1 1 1 2 1 3 6 10 5 7 10 22 1 5 1 11 1 16 0 16-2 24-9 38l-7 11-2 2-1 1c-7 8-8 8-11 11l-8 10c-2 3-4 8-5 13-2 12-10 10-10 8-2-1-1 2-2-3-1-3 4-16 5-22 1-4 1-3 2-6 1-2 1-5 2-7 0-3 1-4 2-6l5-20c1-5 0-2 2-6 2-5 1-8 3-13l5-18-4-2c-3 3-4 9-7 14-6-2-13-7-20-11-1-1 0 0-2-1-1-1-8-4-10-7s-1-10-2-15c-9 1-5 6-6 14l-8 6c-5 3-20 13-24 13-5-5-3-7-6-12v-1h-6l5 22c4 9 2 8 4 12l2 6c1 3 1 5 1 7 2 5 2 2 3 6 1 3 0 4 3 13 2 4 2 7 4 13 2 4 2 8 3 13 2 5 4 9-1 12-9 3-9-8-9-10-4-17-18-25-22-30-5-5-15-19-17-25-5-19-4-14-4-35zm52-198c-5-3-54-1-65-1-12 0-21-3-24 8-1 2-1 4-2 6-2 3-2 2-3 6l-8 25c-1 1-3 4-3 5-3 3-34 1-39 1-38 0-27 4-20-23 1-4 2-2 3-5 1-2 0-4 2-6l14-36c3-9 7-20 11-29l13-37c1-2 2-3 3-5s1-4 2-6c2-7 17-42 18-48l4-12c2-6 5-3 3-12l-5 1-34 88c0 2-1 2-1 3-2 3-2 5-3 7-1 3 0 0-1 4-1 1-1 1-1 3-1 5-2 3-3 7-1 2-2 5-3 7l-5 14c-1 2-1 5-2 7-3 7-9 21-11 28l-8 21c-1 4-2 3-3 6-1 5-1 4-3 8s-6 17-6 22c6 1 12 0 18 1 13 1 26 0 39 0 28 0 20 1 26-12 4-6 5-15 9-21 1-3 1-5 2-8s3-11 7-12h40c9 0 30-1 37 2 1 1 4 10 5 12l7 18c1 3 0 5 2 7 1 3 2 2 2 5 1 3 1 4 2 7 5 11 4 16 4 30v33c-6 3-15 4-22 6-4 1-3 2-7 3-6 2-13 5-18 10-1 0-1 1-2 2l-3 2c-13 13-24 29-27 48-2 17 0 30 4 43 1 4 2 4 3 6 1 1 1 3 2 4l5 9c5 7 12 12 18 19 5 4 14 18 12 25-1 3-9 7-12 15-1 4 0 8 2 11 4 7 4 8 0 15-4 6-1 16 5 21 8 8 35 0 52 7l35 15 8 2c12-8 16-21 24-16l21 10c2 1 3 1 5 1l13 5c4 12-2 19 7 20 2-6 3-19 1-25-5-2-20-5-28-9l-24-12c-6 2-13 13-19 17-5 2-11-2-15-4-7-3-5-1-13-7 6 0 11 0 16-1 4-1 5-3 7-5l2-2c2-3 3-9 2-14s-5-7-4-12c0-5 7-7 3-18-3-9-4-8-11-14 0-1 3-11 4-13 7-15 19-17 32-40l5-11c1-3 1-4 1-7l3-13c2-19-3-35-12-51l-7-9c-6-9-16-17-26-22 2-6 6-11 13-14 6 4 10 12 17 15l4-5c-4-4-9-9-14-13 0 0 0-1-1-1l-6-6c-7 4-16 17-21 19-4 0-24-4-27-6 0-11 1-46-1-55-1-7-10-25-12-34-1-4-1-3-2-6-2-2-1-4-3-7-2-6-4-15-9-17z"/><path class="fil0" d="M531 366c0 7-1 3 5 10l3 3 8 7c3 4 9 8 8 12l-9 1h-9c-22 0-18-4-18 32 0 13 1 12-10 12h-12c0 4-1 9-2 12-3 7-4 12-8 20-7 11-5 8-36 8-17 0-19-2-19 8 0 83 1 171 0 251v16c2 1 3 1 4 2 5-6 2-22 2-32 0-35-1-235 2-237 6-4 47-2 58-2 3 1 4 4 4 6v312c0 5-3 7-6 7h-31c-8 0-4-19-6-26-4-2-8-1-16-1-11 0-13-2-15 3 8 6 25-3 25 10v35c0 9-16 6-24 6-5 2-6 6-7 12 0 4-1 4-2 7s-1 5-3 8l-6 13c-2 4-6 8-7 13v1c1 0 1 1 1 1 1 1 1 0 2 1l8 8c3 4 7 9 12 9l1-4c-2-5-14-14-15-16s7-16 7-17l5-11c1-2 3-13 7-18 5-1 10-1 15-1 9 0 7 1 13-2 0-14-2-19 3-26h36c5 1 9 1 9-4V489c0-10-7-5-15-7-2-4-1-4 1-8 5-7 6-23 12-24h17c4 0 4-1 4-4 0-10-2-34 2-41h60c6 3 4 9 4 17v334c1 4 1 3 3 3 5 0 3-7 3-16V584c0-61 2-123 0-183-4-4-13-2-20-2-15 0-11-2-29-18-4-5-10-10-10-15l31-30c3-4 8-8 9-12l-4-2c-5 2-39 38-45 44zm660 735c-7 0-10-9-9-12l7-7c18 2 13 19 2 19zm-386 0c-18-1-11-19-3-19 5 0 10 5 10 9 0 7-3 7-7 10zm297-19c16 0 15 18 3 19-3 0-6-2-8-4-4-8 1-11 5-15zm-367-46c0-12 18-13 18 0 0 12-18 11-18 0zm513-20c0-10 12-11 16-6 4 6 1 12-1 13-1 2-15 6-15-7zm-418-12c2 0 3-1 5-1 5-2 10 4 10 5 2 7-2 10-4 13h-2c-12 0-14-9-9-17zm220 8c-11-15 2-20 9-16 5 2 6 7 4 13-3 5-7 3-13 3zm86-10c0-6 5-7 9-8 16 7 7 20-2 19-4-1-5-3-7-6v-5zm-151-4c0-6 1-14-3-18-8 0-2 7-7 13h-11c-4-5-2-8-4-13-7 1-6 2-6 10l-3 3-12-2c0-4 0-8-3-11-4 0-4 0-4 5-1 14 0 30 0 45 0 9 0 8-2 16h-64l-6-9c-1-2-1-1-2-3-2-2-2-4-3-6-5-8-2-7-2-14 0-18-18-23-27-15-2 1-4 5-5 8 0 3 0 8 1 11 1 4 4 3 4 9l-13 38c-2 4-2 10-6 11-6 0-6-1-11 1-2 1-3 2-7 2l-31-33c2-4 3-11 2-15-3-10-15-14-23-10-3 2-8 8-8 12 0 8-1 8 5 15 3 3 4 3 10 3 5 0 7-1 11 2l32 34c0 8 0 10 4 15 2 3 8 6 13 6s12-5 14-9c2-6 0-14-3-19 1-4 2-9 4-13l4-11c1-3 2-4 2-7l6-17c3-4 6-5 12-5 5 0 8 8 10 13l6 10c1 1 3 2 5 2 8 0 71 1 73-1 4-8-1-39 2-50 2-2 2-2 6-2h7c4 6 1 7 2 14 0 2 0 2 2 3 9 3 4-10 7-17 4 0 12-2 14 2 3 11-2 42 1 50 2 2 52 1 59 1 6 0 5-3 6-7 1-3 2-2 3-5l4-11c2-6 1-9 10-9 7 11 20 37 26 50 6 12 4 5 3 19-1 12 9 19 15 19 5-1 10-3 12-5 13-16-5-20 2-32 2-3 1-2 2-6 1-3 2-2 3-5s1-5 2-7l7-18c2-3 2-2 3-6 4-10 6-9 14-9 7 9 12 23 17 33l4 8c1 2 1 2 1 4 2 4 7 11 7 14 0 5-2 5-3 10-3 17 23 26 30 11 5-10 1-11 0-19 1-2 15-15 16-17 8-7 26-31 32-32 7-2 8 2 13-3 3-2 6-4 6-10s0-11-5-15c-5-3-5-4-10-3-4 0-6 0-8 1l-1 1s0 1-1 1c-3 3-6 6-6 12 0 10 8 9-1 18-1 2-2 2-3 3l-36 38c-5 1-14 1-18-1-1-3-2-5-3-8l-24-51c9-10 3-27-10-27-7-1-12 2-16 8-3 5-2 12 1 16 4 5-1 13-3 18-1 2-2 4-3 8-2 3-3 4-4 7s0 3-1 5l-6 12c-7 13 0 13-16 13-4-3-7-9-9-14-3-8-22-41-22-45 0-3 9-14-1-24-2-3 1-1-4-3-6-2-15-2-19 3-9 11-3 18 3 27-2 4-3 10-6 14-4 10 0 5-7 14-13-2-25-1-38-1-9 0-10 6-10-15v-33zM181 594c0-4 1-5 3-7h67c5 0 8 2 8 7 0 13 1 16-6 16-9 0-67 1-72-1-1-4 0-11 0-15zm0-35c4-2 4-1 9-1h52c6 0 17-2 17 4 0 13 2 19-9 19h-63c-4 0-5-1-6-4v-18zm-52-137c0-3 2-17 3-20 1-4 2-4 3-8 1-6 1-4 3-7 1-2 0-2 1-5l17-22c8-8 14-11 23-16 6-4 24-9 29-10h10c15 0 13 1 24 3 4 1 5 1 9 3 2 1 5 1 7 3 2 1 1 1 4 2 7 3 19 13 24 19 5 5 9 11 12 17 2 3 3 4 4 7 2 6 7 20 7 26 0 4 1 7 1 10 0 4-1 2-1 6-1 10-3 22-8 31-3 7-11 19-16 24-4 4-10 13-13 17-4 8-4 11-7 16-2 3-1 5-3 9-6 17 1 23-10 23h-67c-8 0-4-14-9-25-3-6 0-5-4-12-2-2-1-2-2-4-5-12-21-28-26-36l-12-27-3-24zm-6 1l1 9c1 14 0 7 3 19 2 10 7 18 12 26l22 30c2 2 2 3 3 5 5 11 6 18 9 29 3 12 1 60 1 75 10 4 33 0 37 1 4 0 4 0 5 3 1 4 1 15 1 20 0 2-1 4-1 5 0 4 1 2 1 5v26c0 2-1 3-1 4l1 16c0 11 2 7 9 3 1-1 2-1 3-1 6-3 10-6 17-8l7-3c3-1 7-1 9-1 9-3 6-10 6-29 8-3 32-1 42-1 14 0 1 22 9 28 4 3 9 2 14 4 3 2 2 1 6 2 6 2 10 5 15 8 2 0 3 0 4 1 2 1 0 0 2 2 2 1 8 4 10 4 3-1 14-15 19-18 5 4 13 14 17 14 4-6-2-10-5-13-4-4-7-7-12-10-9 5-14 18-22 18-4 0-7-4-10-5l-5-3c-2-1-4-1-6-2s-2-1-5-2c-2-1-3-1-6-2l-12-4c-2-9 2-29-5-29h-54l-2 3c0 7 1 21-2 26-2 2-17 5-19 6-1 1-2 2-3 2-3 1-3 1-5 2-5 2-4 4-10 2v-71c4-3 4-2 9-2 8 0 26 2 33-2 0-15-2-73 4-86 1-4 1-8 3-12 17-29 12-18 28-40l6-9c5-15 10-28 10-45 0-9-4-30-8-38-9-16-12-21-25-33l-9-8c-8-5-19-11-28-13-15-3-28-6-42-2-3 1-6 1-9 2-2 0-4 0-5 1-3 1-1 1-4 1-9 4-18 8-25 14l-12 11c-8 8-14 17-18 27-1 3-2 3-3 7l-3 10c-1 5-1 10-1 15-1 3-1 3-1 6zm1806 524c-2-1-5-8-6-11-4-17-7-13 3-22 3-2 6-5 8-7v-71c0-21-1-20 11-20 4 11-1 80 2 90 1 5 4 6 7 8 4 3 5 4 8 8l-7 21c-2 5-4 4-11 4h-15zm-3-256c4 6 0 30 3 40h2c10 1-2-32 6-42h7c7 8-2 41 5 42l3-1c6-14-8-53 11-35 8 7 6 35 6 49 0 7-1 7-6 9-11 4-18 19-8 33 0 0 4 3 4 4 3 2 6 1 9 5 1 3 2 11-1 13s-52 2-54-1c-2-8-1-13 4-16 8-3 9-6 11-10 3-6 4-10 1-17-6-12-15-10-16-15-2-2-1-34-1-41s6-18 14-17zm-21 17l1 48c6 2 17 6 17 14 0 6 1 10-7 15-3 1-6 3-11 4l1 24c10 8 21-3 21 7v85c-2 3-5 4-7 6-9 6-11 5-6 18l6 21c1 3 4 4 8 4 41 0 27 3 36-16 2-4 1-6 3-10 3-9 6-9-6-17-3-1-7-4-7-8 0-14-2-79 1-87 18-1 23 7 20-27-7-5-17-2-17-19 0-3 1-5 2-6 4-5 2-3 5-4 6-3 10-2 10-9 0-10 1-42-1-51-1-3-3-6-5-8 0-1 0 0-1-2-10-11-21-7-41-7-8 0-17 8-19 14-1 3-3 8-3 11zm-292-38c0 16-10 19-23 22-15 4-24 1-39-1-8-1-20-8-26-13l-14-14c-3-4-6-9-11-11-9 4-14 11-21 16-3 2-5 4-8 6l-4 4-1 1c-4 5-11 8-16 13l-3 3c-1 2-2 2-2 4 2 5 6 9 10 13 1 2 1 2 2 3l8 10c3 3 4 3 6 5 17 16 42 27 65 32 7 1 25 3 33 2l2-2-2-4h-11c-9-2-19-2-28-5-3-1-5-1-8-2-3 0-5-2-8-3-11-3-20-11-28-15-4-2-3-2-6-4l-22-23c-3-3-5-6-2-10l8-6c7-6 30-28 35-28s9 8 11 11c11 11 26 21 42 24 20 3 23 2 40 0 11 0 23-8 27-18 3-9 0-17-7-21-10-6-23-9-34-11l-24-6c-4-2-8-1-12-3l-16-5c-2-1-4-1-6-2-3-1-1-2-4-3s-3 0-6-2c-6-4-12-7-17-12-1-2-2-3-4-4l-13-25c-1-10-4-21-1-32l3-12c2-5 4-7-4-9-1 5-3 7-4 13-4 25-4 51 15 70 10 10 14 12 26 19 6 4 19 7 26 9l15 4c3 1 4 1 7 2 5 2 9 1 15 4 7 3 32 3 39 16zM827 393c2 8 9 16 10 21 1 3 0 1 2 4 5 8 10 32 12 36h18c17 0 14-4 14 24 0 7-15 5-26 5-10 0-20-1-30 0-5 8 3 6 23 6 12 0 22 0 32 1 1 4 2 11 1 16-1 7-9 5-14 5h-18c-2 4-1 3-2 8l-15 39c-2 2-8 12-8 13 0 7 16 18 20 25-2 6-32 34-37 39-12-3-17-19-25-18-2 5 0 7 8 15l7 7h1c1 1 0 1 1 2 1 0 2 1 2 2 2 1 3 1 6 1 5-5 45-43 47-48-4-6-11-12-17-18l-1-1c-4-4-4-2-4-5s5-10 7-13c0 0 0-2 1-3 1-3 0-1 2-3 1-2 1-5 3-7 5-11 7-22 7-23 1-2 3-4 4-6 10 0 25 2 32-2 0-13-2-21 3-26h79c9 0 7-6 1-7-18-1-73 3-83-1-1-6 1-30-1-33s-26-2-32-2c-4-6-3-8-5-15-1-2-2-3-3-6-2-7-12-28-17-33l-5 1z"/><path class="fil0" d="M215 366c16-3 7 5 11 11 4 4 8 2 12 5 6 4 7 3 11 5 3-3 6-5 9-7 1 1 2 2 2 3 1 1 2 1 3 2 0 7-3 5-5 10-1 4 3 9 5 12l3 11c1 0 11 2 11 2 3 1 1 7 0 9-3 4-10-3-13 8-1 5-6 15-7 15 0-1 0 0 0 0 3 8 10 8 3 14-2 2 0 0-2 3-4-3-5-2-7-7-7 0-12 6-19 7-4 1-6 0-7 5 0 4 1 9-5 9-9 0-6-5-7-12-3-1-11-3-17-6-2-1-2-2-4-3-8 1-3 6-13 6-7-9-1-7 3-16-2-2-2-2-4-5-1-2-1-3-2-5-4-8 0-4-4-11-10-1-11 2-11-11 18-5 10 4 13-10 2-6 8-10 7-16-2-3-4-4-6-8 2-2 3-2 4-5 10 0 3 1 12 6 14-7 1-4 21-8 1-4 2-9 3-13zm-32 6c-7 0-16 11-17 16l7 10c-2 3-2 4-4 8-2 6-5 6-14 7-1 7-2 18 2 24 14 0 10 1 16 15-3 3-3 4-6 7 0 6-1 4 5 10 3 3 4 3 7 8h6c2-4 3-4 6-6 29 9 7 17 22 18h7c12 0 12 1 12-4 0-11-1-8 15-15 2 4 2 2 5 4 4 3 4 6 10 1l10-11c3-8-9-7-4-18 0-1 2-3 2-5 3-6 3-4 10-4 7-2 5-13 5-23-4-3-7-2-13-2-12-25-2-13 1-27l-15-15c-4 3-8 8-12 7l-14-5-1-13c-4 0-16-1-19 0-6 1-5 7-6 13-5 2-9 5-15 5-5-2-4-3-8-5zm1706 376v51c0 10-2 12 5 13 5-5 2-23 2-31 0-9 1-27 0-34-1-6-7-7-12-13-1-3-2-3-3-5-1-1-1-2-2-2-1-3 0 0-2-3-8-13-13-34-10-48 1-4 1-10 3-14 3-8 6-15 12-22 6-6 14-15 22-19 4-2 3-2 6-3 1-1 12-4 12-5 11-2 22-1 32 0 7 0 6 2 13 4l11 5c4 2 6 4 10 7 12 9 18 22 24 36 2 7 2 28 0 37 0 3-1 4-2 6-1 3-1 4-2 7 0 2-1 2-3 5-5 9-11 17-19 23 0 14-2 60 0 69 4-1 4-1 6-3v-53c0-16 2-8 13-22 5-7 6-10 9-17 2-2 2-3 3-6 1-7 3-7 3-15 0-7 2-22-2-32s-4-15-13-27l-2-2-2-2-4-5c-1-1 0-1-2-2l-22-14c-13-7-23-7-37-7-11 0-19 2-29 7-8 5-12 5-21 14-5 5-13 13-16 19l-8 18c-3 8-2 31 0 41 1 10 11 28 18 35 3 3 7 6 9 9zm-725-260c17 4 139-3 145 3 2 3 2 5 4 8l5 12c2 7-1 1 3 8l5 13c0 2 0 3 1 5 1 3 1 1 2 4 2 5 4 12 7 17 2 4 1 4 2 9 2 4 3 3 4 8l19 51c2 4 3 3 4 8l10 26c1 3 1 5 3 8 1 3 1 1 2 4l4 13c2 4 3 5 4 9 2 9 15 38 16 42l5 13c1 2 1 1 2 4 2 4-1 8 7 6 1-8-1-5-3-11 0-2 0-3-1-5s-1-1-2-4l-40-103c-2-10-1-5-3-9-1-2 0-2-1-5-1-2-1-1-3-4l-29-77-2-4c0-2 0-3-1-5l-7-18c-2-5-2-4-3-7-3-7-7-24-13-24h-140c-3 0-5 2-6 5zm-495 97c0-2 1-2 1-4s-1-2-1-5c0-7 1-5 1-9 0-3-2-10 4-10 17 0 35 1 50 11 3 2 6 4 8 7l6 6c7 8 13 28 13 37 0 14-1 23-7 36-2 7-8 14-13 19-12 11-34 17-49 17-7 0-13 2-13-8v-97zm-6-31c0 17-1 135 0 141 5 2 33 1 42-1 17-4 36-18 43-33 2-4 2-2 3-6 2-3 1-3 3-6 3-5 4-23 4-29 0-11-4-20-6-28-2-6-7-13-11-18-24-25-45-24-74-24-3 0-4 2-4 4zm890 268c-5 0-5 1-5 6l21 11c7-3 9-7 16-13 3-3 2-2 6-4l19 18v1l7 7c4 4 2 1 4 4 1 2 1 3 1 4-4 3-9 9-13 13-7 7-3 8 0 12l7 14c1 2 1 2 2 5 5 8 1 3 4 10 0 2 1 3 2 5 1 3 1 8 2 11 13 2 19-2 28 3v28c0 7-1-1 0 15-9 5-21-1-29 3 0 10-8 32-14 40-2 5-5 8-5 14l16 15c1 3 3 4 6 3 3-8-8-12-15-21l11-21c2-5 3-7 4-12 1-4 3-8 4-11 5-1 10-1 15-1 15 0 13 2 13-22v-33c0-5 0-6-5-6-15 0-24 5-27-12-2-12-12-27-14-33 1-2 3-4 4-5 18-18 19-13 0-32-3-2-3-2-6-5-4-4-6-6-11-10-1-2 0-1-2-3l-1-1c-1-1-1 0-2-1s-1-2-2-3l-3-2c-6 1-13 11-17 15-5 5-5 3-16-3-1 0-5-3-5-3zM231 786l1 1c2 1 1 0 2 1 6-5 7-10 16-18l21-13 23-4c1 0 16 3 18 4 3 1 4 2 7 3 4 2 4 2 7 4 2 1 4 3 6 4 6 5 6 6 11 12 7 8 13 29 12 40-3 18-7 31-22 44-2 1-3 3-5 4l-14 8c-4 2-21 5-28 3-15-3-25-6-36-17-3-2-4-3-6-5l-10-12c-2 1-2 1-4 3 2 2 4 13 25 27 7 5 21 11 30 11 14 0 26 0 38-7l12-7 2-2c11-11 10-9 17-22 2-3 1-2 3-5 0-3 1-3 2-6 3-8 3-30 0-39-3-11-9-22-17-30l-13-10c-19-10-23-10-44-10-8 0-14 3-18 4-16 5-37 25-36 34zm1090-497c1 8 1 125 1 141 0 6-2 15 2 19 4-3 3-2 3-7V310c0-10-1-11 3-17l28-1c4 0 5 1 9 1 3 8 1 97 1 118 0 10-2 31 2 38 7-2 6-7 6-15 0-22 1-144-1-146-6-3-41-2-51-2l-3 3zm656 813c-2-1-295 0-305 0-1 3 0 2 1 6h304c1-3 2-3 0-6zm-237-231c0 9-1 24 3 33 1 4 1 5 2 8 4 13 19 33 32 42 5 4 20 13 27 15 8 2 21 6 30 3l-1-5c-5-1-14 0-19-2-3-1-5-2-8-3-7-2-24-11-29-16l-10-10c-2-2-4-4-5-7-5-6-12-21-14-29-3-21-4-30 3-50 2-4 4-12 7-15 4-7 8-13 15-19l5-5c6-5 14-10 21-13 3 0 5-2 7-3 6-1 13-3 19-3 8 0 9-1 8-7-11-3-32 4-40 9-5 3-5 1-14 8-10 8-17 14-23 24-1 2-2 2-3 3l-4 7c-4 10-9 24-9 35zm-510-535v108c0 2 0 3 1 5 7-3 5-4 5-24 0-19-2-78 2-87h37c3 8 1 46 1 55 0 17-2 40 1 55h4c2-1 3-4 3-7 0-13 1-102-1-107-1-2-1-2-5-2h-40c-3 0-8 0-8 4zM387 481c2-9-9-6-16-8-10-4-22-13-27-23-7-13-10-26-5-40 6-14 8-19 20-28l4-2c8-4 16-7 27-7 13 0 29 9 38 19 12 14 10 25 10 40 0 10-7 12-2 21 7-6 3-1 6-10 5-11 4-11 4-23s-9-29-18-37c-6-5-16-13-25-14-18-3-10-4-29-1l-15 6-10 8-1 1-8 9c-6 11-4 7-8 19l-3 13c0 4 4 20 6 23 6 12 8 15 19 24 2 2 1 1 4 2l4 3c6 4 17 6 25 5z"/><path class="fil0" d="M240 816c0 6 3 18 5 22l4 8c8 9 11 11 20 17 10 6 19 6 29 6 6 0 20-6 25-10 4-3 6-5 9-8 1-1 3-3 4-5l3-6s-1-1-1 0l-2-3c-5 3-5 5-11 11-1 2-2 2-4 4s1-1-2 1c-13 10-20 8-36 8-7 0-19-9-25-15-4-5-10-18-10-22 0-6-1-15 1-20 5-13 9-19 21-26 15-10 39-8 52 4 8 8 11 16 15 12 0 0 2 1 1-3-1-3-6-8-8-10-4-4-7-7-13-10-4-3-11-5-16-6-12-2-19 0-29 4-5 1-17 10-19 14-7 11-13 18-13 33zm-113 204c-4 11-5 14-13 21-11 9-25 9-37 2-7-4-9-7-12-13-1-2-2-3-3-6s-1-11-1-16c1-8 7-15 14-20 15-12 34-8 46 7 4 6 8 17 6 25zm6 0c2-8 0-10-1-17-4-15-17-25-32-28-10-2-24 2-30 8-4 4-7 6-10 11-5 7-8 23-4 32 3 9 7 16 17 22 3 2 10 5 14 6 7 1 21-1 26-5 14-10 16-11 20-29zm908-141c9 4 10-6 10 12 0 9-7 3-11 5-1 2-1 5 1 6 1 1 6 0 8 0 4 5 2 12 0 17h-9c-1 5 0 7 10 7 2 7 1 24 1 32 0 4-1 5-2 7h-9c-1 3-1 2 0 5h32c2-1 1 0 3-2-1-2-2-3-2-4h-13c-2-7-2-32-1-38l9-1c3 0 5-1 7-2l-2-4c-14-1-15 3-15-11 0-3 0-2 3-6 11 0 12 2 14-4-4-5-10-1-16-3l-1-12c0-4 1-3 5-3 7 0 10 2 12-5-5-4-20-2-31-2-5 0-6 2-3 6zm887 128c-2-3-5-6-8-9s-6-7-10-8c-6 3-13 8-18 11l-21 7c-22 5-9 4-13 27-2 6-1 4-18 4-4 0-30-1-32 1s0 6 4 6h33c4 0 0-1 3-1h16c2-6 0-20 1-27 4-3 12-5 17-6l28-13c8 4 13 13 19 17 7-1 16-13 21-18 4-4 18-16 20-20l-2-4c-2 0-2 0-3 1-3 1 0-1-3 2l-23 22c-4 5-4 7-11 8zM290 924l1-2c-3-6-5-3-11-4l-14-3c-3 0-3-1-6-2-2-1-4-1-6-2-4-1-2-1-6-3-11-3-26-17-33-25-3-3-6-7-7-10-5-6-6-10-9-15s-7-21-8-26c0-2 0-5-1-7-2-11 1-21 3-30 1-2 0-5 1-7 1-3 2-4 3-7 1-5 4-8 3-12l-5-1c-3 6-8 18-9 26-4 33-4 14 0 45 1 5 4 16 6 20 2 3 1 3 2 6l7 11c2 2 2 3 4 5 2 3 1 2 3 5 3 3 6 5 9 8 1 2 2 3 4 5l9 7c2 1 4 2 6 4 5 4 17 8 24 10s0 1 13 3c5 1 12 2 17 1zm1185-28h53c2 0 2 1 4 1 2 16-2 15-8 15h-50c-2-6-1-7-2-13l3-3zm63-6c-8-3-25-2-35-2-9 0-29-1-36 1-2 5-1 11-1 16 0 19-6 14 36 14 10 0 23 1 33 0 5 0 4-1 4-12 0-6 0-12-1-17zm-374 6h53c2 0 2 0 4 1 0 5 1 10 0 14-8 1-46 1-58 1-2-7-1-6-2-13l3-3zm-8-7l-1 29c7 2 66 2 73 0v-28c-10-3-54-2-67-2-2 0-4 0-5 1zm301-50c1-1 2-1 4-2l27-16c3-2 15-9 19-10 2 3 6 8 6 12 0 5 1 1-6 6l-37 21c-3 2-3 3-7 3-3-4-6-9-6-14zm-10-3c0 5 1 4 3 7l10 18c8 0 8-2 17-7l31-18c2-1 0-1 3-2l12-7c0-5-1-4-6-12-10-17-5-16-31-1-1 1-2 1-3 2l-36 20zm-259-25l49 28c0 2 0 4-1 5-1 3 0 0-2 3-3 5 0 4-6 6l-11-7c-8-3-3-1-6-3-2-1-3-1-4-2l-15-9-6-3c-2-2-4-3-6-4 5-12 0-5 8-14zm43 51c3-1 4-2 5-5 2-2 1-1 2-4l6-9c3-5 2-3 1-9-4-1-12-7-15-8-10-5-11-6-18-11-2-1-3-1-4-2l-8-4c-5-4-11-7-16-7l-13 21c-2 6 7 7 13 11 11 8 33 19 42 24 2 2 3 2 5 3zm226 106c1-5 4-10 6-14 3 1 5 2 8 4l24 14c5 3 14 7 18 12-1 5-3 9-6 12-5 0-22-11-26-14l-19-10c-2-2-4-3-5-4zm-10 0c3 6 2 4 13 10l31 18c4 2 4 3 8 5 6 2 2 4 12 3 2-8 9-16 12-21-3-6-9-8-14-11l-35-20c-4-3-10-6-14-6l-3 6-10 16zm-266 15c5-5 17-10 24-14 8-5 19-14 27-14 1 2 1 4 2 6 5 7 4 7-2 11l-31 18c-4 1-9 6-13 6-1 0-7-7-7-13zm3 22c9-2 3 0 13-5 3-1 1-1 4-3l38-22c6-4 4 1 7-6l-11-20c-4-6-9 0-10 0l-4 2c-2 1-4 2-6 4l-34 19c-12 6-12 7-5 18 1 1 1 1 2 3l6 10z"/><path class="fil0" d="M1555 936c0 9 3 14-1 31l-4 12c-4 6-10 14-16 19-16 12-14 8-23 12-12 6-31 3-43-2-7-3-10-9-17-6 0 4 2 5 6 7l8 5c4 2 17 6 21 6 19 0 19 1 39-8 7-3 14-9 18-13 13-13 14-22 17-30 3-5 6-37-2-38-3 0-3 2-3 5zM531 518c3 14 7 28 15 41 7 14 6 12 0 19l-16 18c2 4 7 9 11 12l35 34c2-2 2-2 5-3-10-11-35-34-42-43l8-9c2-3 14-12 14-16l-10-15c-1-2-1-3-2-5l-6-14c-1-4-1-5-3-8-1-3-1-5-2-9-1-5-1-3-5-6l-2 4zM155 723l13 13c6 6 2 6-2 15-1 3-1 3-2 5s-1 3-2 5c-2 3-2 3-3 6-2 6-3 8-4 11 0 3 0 5-1 7-5 1-10 2-15 2h-9c-3 0-5-1-5 3v52c8 5 6-3 6-21 0-7-2-23 2-28l25-1c6-10 1-9 7-20 1-3 1-6 2-8l14-25-21-20c-3 2-3 1-5 4zm570-398c2 1 13 4 15 5 5 1 16 6 22 8l13 7c9 5 6 9 20-5l6-6c6-6 7-6 13 1l3 3 31 30c4 2 5 0 5-5l-44-43c-11 1-22 23-29 21l-37-18c-3-1-5 0-8-1-5-2-10-5-10 3zm293 576c-1 4-1 37-1 45 0 6 2 12-4 12h-66c-3-3-2-4-2-11-2-1-3-1-6-2-1 6-1 12-1 19 4 2 6 1 13 1h3c3 0 6 1 6 1 4 0 2-1 6-1s4 1 6 0h51c2-7 1-50 1-60 0-3-1-4-1-5-4 0-2-1-5 1zm119-514v55c0 5 2 5 5 7 4-5 2-26 2-34 0-5-1-22 2-25s25-2 31-2c12 0 9 14 9 26 0 8-2 31 2 35l4-4-1-60-2-2c-8-1-19 0-28 0-14 0-20-3-24 4zm-939 37c0-4 3-11 6-14 4-4 3-2 7-4 4-3 5-3 11-3 9 0 29 19 12 36-9 9-16 6-24 4-7-2-12-11-12-19zm16-27c-12 4-19 10-21 21-1 6-2 7 0 13 2 7 1 9 11 16 19 15 52-6 41-33-6-13-21-20-31-17zm584 144l3-3-8-10-1-1c-11-11-12-11-24-20l-2-1c-2-1-1-1-2-2-8-4-15-8-24-11-5-1-4-2-8-3-24-6-39-7-63-7-9 11 9 3 35 8 12 2 17 2 29 6 3 1 2 1 4 2s2 1 5 2c4 1 1 0 4 2 2 1 2 0 4 1 3 1 1 1 3 2 2 2 3 2 5 2 4 2 16 11 20 15 6 5 15 17 20 18zM657 293c0 8 5 25-5 29-5 1-4-1-12 3-2 1-14 4-18 7-5 3-16 7-20 12 1 3 1 2 3 4 3-1 14-8 21-10 4-2 3-3 6-4 5-1 4 0 8-2s20-5 24-8c0-8-1-18 0-25 0-9 7-6 10-7 5 0 2 1 5 1s3-1 5-1h31c5 0 5 2 10-2-1-3-1-4-4-4h-61c-1 2-3 3-3 7zm249 258v141c0 3 4 4 6 1 1-2 0-120 0-133 0-18-6-12-6-9zm834 466c2-4 15-17 18-18l19 9c4 1 2 1 6 3l13 4c2 1 7 2 9 1 3-2 1-4 1-6-4-1-5-1-7-2l-36-15c-4-2-2-2-6-3-7 4-10 12-18 17-7-2-8-6-15-12l-14-14c-3-3-5-7-11-6-1 5 1 6 8 12l21 21c6 6 5 7 12 9zm-73-160v47c0 2 1 3 2 5h14c1 0 12-2 15 4 0 6 4 18 7 22 2 3 0 2 2 5l5 10c2 3 1 2 3 5l6-1c0-5-2-6-6-12l-8-18c-1-3-1-5-2-8 0-2-3-12-5-13h-20c-7 0-5-2-5-15v-31c-1-5-2-3-6-5-1 1-2 3-2 5zm118-24c10 5 6-6 30-14 11-3 25-2 36 0 3 0 4 1 7 2 8 4 7 3 13 8 10 7 13 12 19 22 1 2 2 5 4 7 6-1 7-3 0-14-6-9-5-8-13-16-4-4-16-12-21-13l-8-3c-4-1-17-2-21-2-9 0-13 1-19 4-3 1-6 1-8 3l-11 6c-3 2-7 6-8 10zm-89-50c4 8 18 15 18 20 0 3-9 19-11 23-2 5-5 14-6 20 0 4 0 4 3 6 5-4 6-14 7-19 4-7 7-16 12-23 10-15-10-15-13-28 4-5 11-12 17-17 3-3 5-6 8-9s7-5 8-10l-3-3c-4 2-15 13-18 16l-5 5c-1 2-1 1-3 3-1 2-3 4-4 5-4 4-8 7-10 11zm143 158c-14 0-6 1-19-2-7-1-5 0-10-3-5-2-5-1-9-4-6-5-9-8-13-3 4 8 21 16 31 17 2 1 4 1 7 1 13 0 4 2 24-1l23-10c1-1 2-2 4-3 8-6 22-21 22-32l-5-2-9 16c-4 7-15 16-22 20-4 2-20 6-24 6zM693 406c8 3 17 2 30 8 12 6 15 8 21 14l10 11c2 3 2 4 4 6 2 4 1 3 3 7 5 12 2 5 5 14 2 5 0 10 3 15 4 0 2 0 5-1 0-11-3-21-7-31-2-5-4-8-7-12l-12-14v-1l-7-5c-12-9-30-16-43-16-4 0-4 2-5 5zm1110 334c-2 2-9 4-12 5-6 1-12 4-18 7-5 2-13 6-16 10 1 2 2 3 5 3l39-16c3 0 2 0 5-1 2-1 4-1 4-5 1-2 1-4 1-6-1-22-4-18 22-18 2-9-2-7-23-7-10 0-7 8-7 28zM366 290c5 4 9 3 18 3h21c7 14-8 21 15 25l15 6c4 2 9 6 14 7l1-1c1-2 1-1 1-2 0-2 0-2-2-4-3-2-1-1-4-2l-14-7c-2 0-3 0-5-1-14-7-11 4-12-26-9-4-32-2-43-2-3 0-4 2-5 4zm1156 818c4-6 0-13 3-18 2-3 4-4 7-4 5-1 4 0 8-2 3-2 5-2 8-3l13-7c6-2 1-3 11-3l8 9c9 9 10 7 10 0l-13-13c-3-3-2 0-4-5-7 0-8 2-17 7-2 2-3 2-6 3l-13 6c-2 1-5 1-8 2s-4 1-7 2c-2 1-5 1-5 4 0 14-2 21 5 22zM938 883c0 9-1 31 2 39 6-3 5-3 5-17 0-24-5-20 30-20 5 0 24 0 28-1 2-9-8-6-28-6h-35c-1 2-2 3-2 5zm1125-55c-16 0-16-22 0-22 15 0 16 22 0 22zm-19-12c0 4 1 10 5 13 7 6 8 5 18 5 11 0 21-21 8-31-6-4-4-4-15-4-9 0-16 10-16 17zm-144-331c0-6-1-7 3-11 12-12 20 1 20 6 0 12-5 9-6 13h-10l-7-8zm-7-6c0 21 24 30 35 10 4-7 3-13-3-20-13-15-32 0-32 10zm-492 79c0-5 7-10 12-10s11 3 11 10c1 7-4 10-7 13-1 0-16 2-16-13zm7-16c-4 2-8 3-11 7-6 9-1 32 20 28 14-2 21-25 6-33-5-2-10-4-15-2zM290 328l2 4c6-2 5-3 7-5 1-1 0 0 2-1 2-2 4-6 8-7l8 7c2 2 1 2 3 4 0 0 1 0 1 1 3 2-1 2 4 2 2 0 16-9 19-10s4-1 6-2c3-2 1-2 6-2 7-2 6 0 9-6-3-3-4-4-13 0l-9 3-8 4c-14 8-11 2-22-7l-4-4c-4 2-8 6-11 9s-5 3-8 10zm1681 527h20c1 1 3 3 3 6v36c0 3-2 5-3 6h-9c-6 8 4 6 14 6 3 0 4 0 4-3v-54c0-2 0-2-1-3h-25c-2 0-6-2-3 6zM362 539v22c6 3 17 2 25 2h26c2-6 1-17 1-24 0-3-4-3-5-3-6 5 2 20-6 20-9 0-27 1-34-2-1-6 0-11-1-17-4-1-6-1-6 2zm1397 515c3 0 4-1 5-3 0-3 0-3-3-3h-89c0 3-1 6 3 6h84zm-498-409h34c3-1 3-1 4-3-3-4-5-3-14-3-5 0 0 1-4 1-3 0-1-1-5-1-7-1-10 1-2-17 1-2 1-3 2-5 3-11 13-23 2-23-1 1-5 11-6 13l-9 26c-2 5-5 7-2 12zM156 909c1 5 0 4 4 5l21-20c-3-6-7-12-10-18-2-3-1-3-3-6l-5-14c-2-5-1-11-8-11-2 10 4 19 7 28 10 26 16 14-6 36zm1960 193c-3-1-46 0-55 0s-13-2-16 2c1 3 3 4 7 4 12 0 54 1 63 0 2-4 2-2 1-6zM466 317c3 2 5 4 7 6l16 17c2 1 3 2 4 3-2 10-8 9-11 17l4 2c2-1 1 0 3-2 2-1 1 0 2-2 5-5 12-10 12-15l-33-32c-2 2-2 4-4 6zm1558 693c-4 5-10 2-15 4v5l14 1c1 6 0 10 2 14 9 1 4-7 7-14l13-1c0-4 0-6-5-6h-7c-3-5-1-8-2-12-2-4 0-1-3-3-4 1-4 1-4 12zm-44-578h-12c-1 4-2 5 1 6 0 0 2 1 4 1h3c12 0 2 15 8 15 8 0 2-5 6-15 7 0 9 1 13-3 0-2-1-2-2-3-12-2-12 0-13-10 0-3 0-5-3-5-4 0-3 3-3 7s-1 5-2 7zM231 729c1 3 0 2 2 4 5-1 2-1 6-3 2-1 1 0 3-2 5-2 10-5 15-7 8-2 3-2 14-4 17-3 14 0 21-5-3-4-2-3-8-3-15 0-24 5-36 9l-13 6c-2 2-3 2-4 5zm830-517c4 5 15 2 27 15 1 1 2 4 4 6 2 3 1 3 3 7 4 7-1 13 9 11 1-8-1-10-3-16s-4-6-6-10c-2-1-1-1-3-3-3-3-7-7-12-9-2-1-4-2-7-3s-6-1-9-2c-3 3-2 0-3 4zM394 820l-3 23-6 15c-4 7-6 12-6 17 4 2 4 2 9-7 1-4 2-3 3-7s2-5 3-8c2-3 1-5 2-8 2-4 2-2 3-8 1-5 2-15 0-19-5-1-2 0-5 2zM288 518c1 4 5 8 9 12l11 9c5-1 16-13 18-17l-2-4c-9 5-6 5-11 9-2 1-2 1-4 3l-7-6h-1l-9-8-4 2zm324-50c0 4 0 9 1 13l6-1c3-15-3-4 5-27 0 0 8-12-1-11-4 1-11 23-11 26zm157 496c2 7 2 4 7 8l18 13c3 1 9 7 9 0 0-4 1-1-6-7l-23-16-5 2zm0-128c1 3 1 3 4 5 2-1 0 0 1-1 1 0 1 0 1-1l22-15c5-3 5-1 7-8l-3-2c-6 2-8 5-12 8s-17 10-20 14zm395-585c0 7 7 4 14 4 6 0 12 1 18 0 6-9-5-6-30-6-2 0-2 0-2 2zm-213 81l1 4h4l5-4c1-2 3-3 5-5 3-4 6-8 10-10l-1-7c-7 3-6 3-13 10-4 4-7 8-11 12zm-27-82v4c5 2 20 1 27 1 4 0 7 1 7-3 0-5-4-3-16-3-6 0-14-1-18 1zm233-103c-6 0-8 5-15 11-2 3-3 4-6 7-1 1-7 5-1 7 4 2 12-9 14-11l6-6 3-3c1-2 1-5-1-5zm-12 165c1 4 2 5 5 8 6 6 11 13 19 17 2-3 2-1 2-6-5-3-2-2-6-5v-1l-5-4c-5-6-6-5-10-11l-5 2zM963 150c3 5 19 20 24 23l3-5-22-22c-3 1-3 2-5 4zm94-32c0 12-2 28 3 32 5-4 3-19 3-30 0-3-1-3-2-4l-4 2zm960 483c7 0 4 1 12-7 6-6 8-6 8-11-7-3-9 2-16 10-3 3-4 2-4 8zm-184 71c-4-3-21-2-25-1-1 7 3 6 12 6 6 0 16 2 13-5zm104-103c9 4 7-6 7-19 0-3-2-5-3-6-6 3-4 16-4 25zm-94 14c1 4 0 1 1 3l16 16c1-1 3-1 4-2-1-5-12-16-16-19-3 1-3 1-5 2zm206 94c4 0 18 1 21-1 3-1 3-1 3-4-5-2-10-1-16-1-7-1-12-2-8 6z"/></g></g></svg>